<mxfile host="app.diagrams.net" modified="2022-07-06T09:12:30.917Z" agent="5.0 (Windows NT 10.0; Win64; x64) AppleWebKit/537.36 (KHTML, like Gecko) Chrome/103.0.0.0 Safari/537.36" etag="GkozUKx9DIePhnd8Jw5J" version="20.0.4" type="github">
  <diagram id="BYP_DEF2OGNwYb_bYMtw" name="Page-1">
    <mxGraphModel dx="1422" dy="706" grid="1" gridSize="10" guides="1" tooltips="1" connect="1" arrows="1" fold="1" page="1" pageScale="1" pageWidth="700" pageHeight="1000" math="0" shadow="0">
      <root>
        <mxCell id="0" />
        <mxCell id="1" parent="0" />
        <mxCell id="4NUy2J90Dz65BaQTz2Xz-14" value="new thread()" style="edgeStyle=orthogonalEdgeStyle;rounded=0;orthogonalLoop=1;jettySize=auto;html=1;" parent="1" source="4NUy2J90Dz65BaQTz2Xz-4" target="4NUy2J90Dz65BaQTz2Xz-13" edge="1">
          <mxGeometry relative="1" as="geometry" />
        </mxCell>
        <mxCell id="4NUy2J90Dz65BaQTz2Xz-4" value="&lt;div style=&quot;font-family: Consolas, &amp;quot;Courier New&amp;quot;, monospace; font-size: 14px; line-height: 19px;&quot;&gt;&lt;span style=&quot;background-color: rgb(255, 255, 255);&quot;&gt;TracerImpl::Start()&lt;/span&gt;&lt;/div&gt;" style="rounded=1;whiteSpace=wrap;html=1;" parent="1" vertex="1">
          <mxGeometry x="490" y="10" width="160" height="60" as="geometry" />
        </mxCell>
        <mxCell id="4NUy2J90Dz65BaQTz2Xz-12" style="edgeStyle=orthogonalEdgeStyle;rounded=0;orthogonalLoop=1;jettySize=auto;html=1;entryX=0.5;entryY=0;entryDx=0;entryDy=0;" parent="1" edge="1">
          <mxGeometry relative="1" as="geometry">
            <mxPoint x="350" y="270" as="sourcePoint" />
            <mxPoint x="350" y="270" as="targetPoint" />
          </mxGeometry>
        </mxCell>
        <mxCell id="4NUy2J90Dz65BaQTz2Xz-20" value="" style="edgeStyle=orthogonalEdgeStyle;rounded=0;orthogonalLoop=1;jettySize=auto;html=1;exitX=1;exitY=0.5;exitDx=0;exitDy=0;" parent="1" source="4NUy2J90Dz65BaQTz2Xz-41" target="4NUy2J90Dz65BaQTz2Xz-19" edge="1">
          <mxGeometry relative="1" as="geometry" />
        </mxCell>
        <mxCell id="4NUy2J90Dz65BaQTz2Xz-39" value="new thread()" style="edgeLabel;html=1;align=center;verticalAlign=middle;resizable=0;points=[];fontColor=#000000;" parent="4NUy2J90Dz65BaQTz2Xz-20" vertex="1" connectable="0">
          <mxGeometry x="-0.1714" relative="1" as="geometry">
            <mxPoint as="offset" />
          </mxGeometry>
        </mxCell>
        <mxCell id="4NUy2J90Dz65BaQTz2Xz-43" style="edgeStyle=orthogonalEdgeStyle;rounded=0;orthogonalLoop=1;jettySize=auto;html=1;exitX=0.5;exitY=1;exitDx=0;exitDy=0;entryX=0.5;entryY=0;entryDx=0;entryDy=0;fontColor=#000000;" parent="1" source="4NUy2J90Dz65BaQTz2Xz-13" target="4NUy2J90Dz65BaQTz2Xz-41" edge="1">
          <mxGeometry relative="1" as="geometry" />
        </mxCell>
        <mxCell id="4NUy2J90Dz65BaQTz2Xz-13" value="&lt;div style=&quot;font-family: Consolas, &amp;quot;Courier New&amp;quot;, monospace; font-size: 14px; line-height: 19px;&quot;&gt;&lt;span style=&quot;background-color: rgb(255, 255, 255);&quot;&gt;TracerImpl::Run()&lt;/span&gt;&lt;/div&gt;" style="rounded=0;whiteSpace=wrap;html=1;" parent="1" vertex="1">
          <mxGeometry x="490" y="120" width="160" height="60" as="geometry" />
        </mxCell>
        <mxCell id="4NUy2J90Dz65BaQTz2Xz-71" style="edgeStyle=orthogonalEdgeStyle;rounded=0;orthogonalLoop=1;jettySize=auto;html=1;exitX=0.5;exitY=1;exitDx=0;exitDy=0;fontColor=#000000;" parent="1" source="4NUy2J90Dz65BaQTz2Xz-19" target="4NUy2J90Dz65BaQTz2Xz-70" edge="1">
          <mxGeometry relative="1" as="geometry" />
        </mxCell>
        <mxCell id="4NUy2J90Dz65BaQTz2Xz-19" value="&lt;div style=&quot;font-family: Consolas, &amp;quot;Courier New&amp;quot;, monospace; font-size: 14px; line-height: 19px;&quot;&gt;&lt;span style=&quot;background-color: rgb(255, 255, 255);&quot;&gt;ProcessDeferredEvents()&lt;/span&gt;&lt;/div&gt;" style="whiteSpace=wrap;html=1;rounded=0;" parent="1" vertex="1">
          <mxGeometry x="770" y="230" width="180" height="60" as="geometry" />
        </mxCell>
        <mxCell id="4NUy2J90Dz65BaQTz2Xz-73" style="edgeStyle=orthogonalEdgeStyle;rounded=0;orthogonalLoop=1;jettySize=auto;html=1;exitX=1;exitY=0.5;exitDx=0;exitDy=0;entryX=0.5;entryY=0;entryDx=0;entryDy=0;fontColor=#000000;" parent="1" source="4NUy2J90Dz65BaQTz2Xz-30" target="4NUy2J90Dz65BaQTz2Xz-70" edge="1">
          <mxGeometry relative="1" as="geometry" />
        </mxCell>
        <mxCell id="4NUy2J90Dz65BaQTz2Xz-30" value="&lt;div style=&quot;font-family: Consolas, &amp;quot;Courier New&amp;quot;, monospace; font-size: 14px; line-height: 19px;&quot;&gt;&lt;span style=&quot;background-color: rgb(255, 255, 255);&quot;&gt;ProcessOldEvents()&lt;/span&gt;&lt;/div&gt;" style="rounded=0;whiteSpace=wrap;html=1;" parent="1" vertex="1">
          <mxGeometry x="900" y="730" width="150" height="70" as="geometry" />
        </mxCell>
        <mxCell id="4NUy2J90Dz65BaQTz2Xz-49" style="edgeStyle=orthogonalEdgeStyle;rounded=0;orthogonalLoop=1;jettySize=auto;html=1;exitX=0;exitY=0.5;exitDx=0;exitDy=0;entryX=0.5;entryY=0;entryDx=0;entryDy=0;fontColor=#000000;" parent="1" source="4NUy2J90Dz65BaQTz2Xz-34" target="4NUy2J90Dz65BaQTz2Xz-48" edge="1">
          <mxGeometry relative="1" as="geometry" />
        </mxCell>
        <mxCell id="4NUy2J90Dz65BaQTz2Xz-50" value="false" style="edgeLabel;html=1;align=center;verticalAlign=middle;resizable=0;points=[];fontColor=#000000;" parent="4NUy2J90Dz65BaQTz2Xz-49" vertex="1" connectable="0">
          <mxGeometry x="-0.1023" y="-1" relative="1" as="geometry">
            <mxPoint as="offset" />
          </mxGeometry>
        </mxCell>
        <mxCell id="4NUy2J90Dz65BaQTz2Xz-66" value="true" style="edgeStyle=orthogonalEdgeStyle;rounded=0;orthogonalLoop=1;jettySize=auto;html=1;exitX=0.5;exitY=1;exitDx=0;exitDy=0;entryX=0.5;entryY=0;entryDx=0;entryDy=0;fontColor=#000000;" parent="1" source="4NUy2J90Dz65BaQTz2Xz-34" target="4NUy2J90Dz65BaQTz2Xz-52" edge="1">
          <mxGeometry relative="1" as="geometry" />
        </mxCell>
        <mxCell id="4NUy2J90Dz65BaQTz2Xz-34" value="&lt;div style=&quot;font-family: Consolas, &amp;quot;Courier New&amp;quot;, monospace; font-size: 14px; line-height: 19px;&quot;&gt;&lt;span style=&quot;background-color: rgb(255, 255, 255);&quot;&gt;!stop_run_thread_&lt;/span&gt;&lt;/div&gt;" style="rhombus;whiteSpace=wrap;html=1;" parent="1" vertex="1">
          <mxGeometry x="240" y="330" width="130" height="80" as="geometry" />
        </mxCell>
        <mxCell id="4NUy2J90Dz65BaQTz2Xz-44" style="edgeStyle=orthogonalEdgeStyle;rounded=0;orthogonalLoop=1;jettySize=auto;html=1;exitX=0;exitY=0.5;exitDx=0;exitDy=0;entryX=0.5;entryY=0;entryDx=0;entryDy=0;fontColor=#000000;" parent="1" source="4NUy2J90Dz65BaQTz2Xz-41" target="4NUy2J90Dz65BaQTz2Xz-34" edge="1">
          <mxGeometry relative="1" as="geometry" />
        </mxCell>
        <mxCell id="4NUy2J90Dz65BaQTz2Xz-41" value="&lt;div style=&quot;font-family: Consolas, &amp;quot;Courier New&amp;quot;, monospace; font-size: 14px; line-height: 19px;&quot;&gt;&lt;span style=&quot;background-color: rgb(255, 255, 255);&quot;&gt;Startup()&lt;/span&gt;&lt;/div&gt;" style="rounded=0;whiteSpace=wrap;html=1;labelBackgroundColor=#FFFFFF;fontColor=#000000;" parent="1" vertex="1">
          <mxGeometry x="510" y="230" width="120" height="60" as="geometry" />
        </mxCell>
        <mxCell id="4NUy2J90Dz65BaQTz2Xz-48" value="&lt;div style=&quot;font-family: Consolas, &amp;quot;Courier New&amp;quot;, monospace; font-size: 14px; line-height: 19px;&quot;&gt;&lt;span style=&quot;background-color: rgb(255, 255, 255);&quot;&gt;Shutdown()&lt;/span&gt;&lt;/div&gt;" style="rounded=0;whiteSpace=wrap;html=1;labelBackgroundColor=#FFFFFF;fontColor=#000000;" parent="1" vertex="1">
          <mxGeometry x="40" y="1030" width="120" height="60" as="geometry" />
        </mxCell>
        <mxCell id="4NUy2J90Dz65BaQTz2Xz-59" value="true" style="edgeStyle=orthogonalEdgeStyle;rounded=0;orthogonalLoop=1;jettySize=auto;html=1;exitX=0.5;exitY=1;exitDx=0;exitDy=0;entryX=0.5;entryY=0;entryDx=0;entryDy=0;fontColor=#000000;" parent="1" source="4NUy2J90Dz65BaQTz2Xz-51" target="4NUy2J90Dz65BaQTz2Xz-53" edge="1">
          <mxGeometry relative="1" as="geometry" />
        </mxCell>
        <mxCell id="4NUy2J90Dz65BaQTz2Xz-65" style="edgeStyle=orthogonalEdgeStyle;rounded=0;orthogonalLoop=1;jettySize=auto;html=1;exitX=1;exitY=0.5;exitDx=0;exitDy=0;entryX=0.5;entryY=0;entryDx=0;entryDy=0;fontColor=#000000;" parent="1" source="4NUy2J90Dz65BaQTz2Xz-51" target="4NUy2J90Dz65BaQTz2Xz-34" edge="1">
          <mxGeometry relative="1" as="geometry" />
        </mxCell>
        <mxCell id="4NUy2J90Dz65BaQTz2Xz-67" value="false" style="edgeLabel;html=1;align=center;verticalAlign=middle;resizable=0;points=[];fontColor=#000000;" parent="4NUy2J90Dz65BaQTz2Xz-65" vertex="1" connectable="0">
          <mxGeometry x="-0.4486" y="-3" relative="1" as="geometry">
            <mxPoint x="1" as="offset" />
          </mxGeometry>
        </mxCell>
        <mxCell id="4NUy2J90Dz65BaQTz2Xz-51" value="i &amp;lt; ring_buffer_.size()" style="rhombus;whiteSpace=wrap;html=1;labelBackgroundColor=#FFFFFF;fontColor=#000000;" parent="1" vertex="1">
          <mxGeometry x="240" y="590" width="145" height="80" as="geometry" />
        </mxCell>
        <mxCell id="4NUy2J90Dz65BaQTz2Xz-58" style="edgeStyle=orthogonalEdgeStyle;rounded=0;orthogonalLoop=1;jettySize=auto;html=1;exitX=0.5;exitY=1;exitDx=0;exitDy=0;entryX=0.5;entryY=0;entryDx=0;entryDy=0;fontColor=#000000;" parent="1" source="4NUy2J90Dz65BaQTz2Xz-52" target="4NUy2J90Dz65BaQTz2Xz-51" edge="1">
          <mxGeometry relative="1" as="geometry" />
        </mxCell>
        <mxCell id="4NUy2J90Dz65BaQTz2Xz-52" value="int i = 0;" style="rounded=0;whiteSpace=wrap;html=1;labelBackgroundColor=#FFFFFF;fontColor=#000000;" parent="1" vertex="1">
          <mxGeometry x="245" y="450" width="120" height="60" as="geometry" />
        </mxCell>
        <mxCell id="4NUy2J90Dz65BaQTz2Xz-55" value="false" style="edgeStyle=orthogonalEdgeStyle;rounded=0;orthogonalLoop=1;jettySize=auto;html=1;fontColor=#000000;" parent="1" source="4NUy2J90Dz65BaQTz2Xz-53" target="4NUy2J90Dz65BaQTz2Xz-54" edge="1">
          <mxGeometry relative="1" as="geometry" />
        </mxCell>
        <mxCell id="4NUy2J90Dz65BaQTz2Xz-61" value="true" style="edgeStyle=orthogonalEdgeStyle;rounded=0;orthogonalLoop=1;jettySize=auto;html=1;fontColor=#000000;" parent="1" source="4NUy2J90Dz65BaQTz2Xz-53" target="4NUy2J90Dz65BaQTz2Xz-60" edge="1">
          <mxGeometry relative="1" as="geometry" />
        </mxCell>
        <mxCell id="4NUy2J90Dz65BaQTz2Xz-53" value="&lt;div style=&quot;font-family: Consolas, &amp;quot;Courier New&amp;quot;, monospace; font-size: 14px; line-height: 19px;&quot;&gt;&lt;span style=&quot;background-color: rgb(255, 255, 255);&quot;&gt;ring_buffer.HasNewData()&lt;/span&gt;&lt;/div&gt;" style="rhombus;whiteSpace=wrap;html=1;labelBackgroundColor=#FFFFFF;fontColor=#000000;" parent="1" vertex="1">
          <mxGeometry x="190" y="720" width="230" height="80" as="geometry" />
        </mxCell>
        <mxCell id="4NUy2J90Dz65BaQTz2Xz-56" style="edgeStyle=orthogonalEdgeStyle;rounded=0;orthogonalLoop=1;jettySize=auto;html=1;exitX=0;exitY=0.5;exitDx=0;exitDy=0;entryX=0.5;entryY=0;entryDx=0;entryDy=0;fontColor=#000000;" parent="1" source="4NUy2J90Dz65BaQTz2Xz-54" target="4NUy2J90Dz65BaQTz2Xz-51" edge="1">
          <mxGeometry relative="1" as="geometry" />
        </mxCell>
        <mxCell id="4NUy2J90Dz65BaQTz2Xz-54" value="++i;" style="whiteSpace=wrap;html=1;fontColor=#000000;labelBackgroundColor=#FFFFFF;" parent="1" vertex="1">
          <mxGeometry x="195" y="930" width="220" height="60" as="geometry" />
        </mxCell>
        <mxCell id="4NUy2J90Dz65BaQTz2Xz-62" style="edgeStyle=orthogonalEdgeStyle;rounded=0;orthogonalLoop=1;jettySize=auto;html=1;exitX=0.5;exitY=1;exitDx=0;exitDy=0;entryX=0.5;entryY=0;entryDx=0;entryDy=0;fontColor=#000000;" parent="1" source="4NUy2J90Dz65BaQTz2Xz-60" target="4NUy2J90Dz65BaQTz2Xz-54" edge="1">
          <mxGeometry relative="1" as="geometry">
            <Array as="points">
              <mxPoint x="590" y="880" />
              <mxPoint x="305" y="880" />
            </Array>
          </mxGeometry>
        </mxCell>
        <mxCell id="4NUy2J90Dz65BaQTz2Xz-60" value="&lt;div style=&quot;font-family: Consolas, &amp;quot;Courier New&amp;quot;, monospace; font-size: 14px; line-height: 19px;&quot;&gt;&lt;span style=&quot;background-color: rgb(255, 255, 255);&quot;&gt;ProcessOneRecord(&amp;amp;ring_buffer)&lt;/span&gt;&lt;/div&gt;" style="whiteSpace=wrap;html=1;fontColor=#000000;labelBackgroundColor=#FFFFFF;" parent="1" vertex="1">
          <mxGeometry x="470" y="730" width="240" height="60" as="geometry" />
        </mxCell>
        <mxCell id="4NUy2J90Dz65BaQTz2Xz-63" value="&lt;div style=&quot;font-family: Consolas, &amp;quot;Courier New&amp;quot;, monospace; font-size: 14px; line-height: 19px;&quot;&gt;&lt;span style=&quot;background-color: rgb(255, 255, 255);&quot;&gt;DeferEvent(event)&lt;/span&gt;&lt;/div&gt;" style="shape=singleArrow;whiteSpace=wrap;html=1;arrowWidth=0.4;arrowSize=0.4;fontColor=#000000;labelBackgroundColor=#FFFFFF;" parent="1" vertex="1">
          <mxGeometry x="720" y="740" width="160" height="50" as="geometry" />
        </mxCell>
        <mxCell id="4NUy2J90Dz65BaQTz2Xz-72" style="edgeStyle=orthogonalEdgeStyle;rounded=0;orthogonalLoop=1;jettySize=auto;html=1;exitX=0.5;exitY=1;exitDx=0;exitDy=0;entryX=0.5;entryY=0;entryDx=0;entryDy=0;fontColor=#000000;" parent="1" source="4NUy2J90Dz65BaQTz2Xz-70" target="4NUy2J90Dz65BaQTz2Xz-30" edge="1">
          <mxGeometry relative="1" as="geometry" />
        </mxCell>
        <mxCell id="4NUy2J90Dz65BaQTz2Xz-75" value="false" style="edgeLabel;html=1;align=center;verticalAlign=middle;resizable=0;points=[];fontColor=#000000;" parent="4NUy2J90Dz65BaQTz2Xz-72" vertex="1" connectable="0">
          <mxGeometry x="-0.5497" y="-4" relative="1" as="geometry">
            <mxPoint as="offset" />
          </mxGeometry>
        </mxCell>
        <mxCell id="4NUy2J90Dz65BaQTz2Xz-70" value="&lt;div style=&quot;font-family: Consolas, &amp;quot;Courier New&amp;quot;, monospace; font-size: 14px; line-height: 19px;&quot;&gt;&lt;span style=&quot;background-color: rgb(255, 255, 255);&quot;&gt;!should_exit&lt;/span&gt;&lt;/div&gt;" style="rhombus;whiteSpace=wrap;html=1;labelBackgroundColor=#FFFFFF;fontColor=#000000;" parent="1" vertex="1">
          <mxGeometry x="785" y="470" width="150" height="80" as="geometry" />
        </mxCell>
      </root>
    </mxGraphModel>
  </diagram>
</mxfile>
